<svg xmlns="http://www.w3.org/2000/svg" viewBox="0 0 64 64" width="64" height="64" aria-hidden="true"><g><g transform="translate(-2.4 2.2)"><path d="M18 34c-6-1-9-6-7-11 2-4 6-5 9-4 1-6 6-9 12-9s11 3 12 9c3-1 7 0 9 4 2 5-1 10-7 11v10H18z" fill="#f6e9c9"/><path d="M18 44h28v6a3 3 0 0 1-3 3H21a3 3 0 0 1-3-3z" fill="#bfe0f2"/></g><path d="M18 34c-6-1-9-6-7-11 2-4 6-5 9-4 1-6 6-9 12-9s11 3 12 9c3-1 7 0 9 4 2 5-1 10-7 11v10H18z" fill="none" stroke="#14382a" stroke-width="2.4" stroke-linecap="round" stroke-linejoin="round"/><path d="M18 44h28v6a3 3 0 0 1-3 3H21a3 3 0 0 1-3-3z" fill="none" stroke="#14382a" stroke-width="2.4" stroke-linecap="round" stroke-linejoin="round"/><path d="M26 34v8M32 34v8M38 34v8" fill="none" stroke="#14382a" stroke-width="2" stroke-linecap="round" stroke-linejoin="round" opacity="0.5"/></g></svg>