<svg xmlns="http://www.w3.org/2000/svg" viewBox="0 0 64 64" width="64" height="64" aria-hidden="true"><g><g transform="translate(-2.4 2.2)"><path d="M18 36h28l-3 18H21z" fill="#e6c79a"/><path d="M16 36c0-10 8-14 16-14s16 4 16 14z" fill="#f2a7a0"/><path d="M32 22c-4-4-2-9 0-12 2 3 4 8 0 12z" fill="#e6c79a"/></g><path d="M18 36h28l-3 18H21z" fill="none" stroke="#14382a" stroke-width="2.4" stroke-linecap="round" stroke-linejoin="round"/><path d="M26 36l-1 18M32 36v18M38 36l1 18" fill="none" stroke="#14382a" stroke-width="2" stroke-linecap="round" stroke-linejoin="round" opacity="0.5"/><path d="M16 36c0-10 8-14 16-14s16 4 16 14z" fill="none" stroke="#14382a" stroke-width="2.4" stroke-linecap="round" stroke-linejoin="round"/><path d="M32 22c-4-4-2-9 0-12 2 3 4 8 0 12z" fill="none" stroke="#14382a" stroke-width="2.4" stroke-linecap="round" stroke-linejoin="round"/></g></svg>