<svg xmlns="http://www.w3.org/2000/svg" viewBox="0 0 64 64" width="64" height="64" aria-hidden="true"><g><g transform="translate(-2.4 2.2)"><path d="M14 34c0-11 9-18 20-18h10c6 0 10 4 10 10v6c0 8-8 14-18 14H26c-7 0-12-5-12-12z" fill="#f2a7a0"/><path d="M14 34c0-5 2-9 5-12 3 3 5 7 5 12s-2 9-5 12c-3-3-5-7-5-12z" fill="#f6e9c9"/></g><path d="M14 34c0-11 9-18 20-18h10c6 0 10 4 10 10v6c0 8-8 14-18 14H26c-7 0-12-5-12-12z" fill="none" stroke="#14382a" stroke-width="2.4" stroke-linecap="round" stroke-linejoin="round"/><path d="M14 34c0-5 2-9 5-12 3 3 5 7 5 12s-2 9-5 12c-3-3-5-7-5-12z" fill="none" stroke="#14382a" stroke-width="2.4" stroke-linecap="round" stroke-linejoin="round"/><path d="M19 34a1.8 1.8 0 1 0 3.6 0 1.8 1.8 0 1 0-3.6 0" fill="none" stroke="#14382a" stroke-width="2.4" stroke-linecap="round" stroke-linejoin="round"/><path d="M32 22c4 0 8 1 11 4" fill="none" stroke="#14382a" stroke-width="2" stroke-linecap="round" stroke-linejoin="round" opacity="0.6"/></g></svg>