<svg xmlns="http://www.w3.org/2000/svg" viewBox="0 0 64 64" width="64" height="64" aria-hidden="true"><g><g transform="translate(-2.4 2.2)"><path d="M27 16h10v6c0 3 7 6 7 13v17a4 4 0 0 1-4 4H24a4 4 0 0 1-4-4V35c0-7 7-10 7-13z" fill="#f3d98c"/><path d="M22 38h20v9H22z" fill="#8cc472"/></g><path d="M27 16h10v6c0 3 7 6 7 13v17a4 4 0 0 1-4 4H24a4 4 0 0 1-4-4V35c0-7 7-10 7-13z" fill="none" stroke="#14382a" stroke-width="2.4" stroke-linecap="round" stroke-linejoin="round"/><path d="M22 38h20v9H22z" fill="none" stroke="#14382a" stroke-width="2.4" stroke-linecap="round" stroke-linejoin="round"/><path d="M27 8h10v8H27z" fill="#fff" stroke="#14382a" stroke-width="2.4" stroke-linecap="round" stroke-linejoin="round"/></g></svg>