<svg xmlns="http://www.w3.org/2000/svg" viewBox="0 0 64 64" width="64" height="64" aria-hidden="true"><g transform="rotate(-26 32 32)"><g transform="translate(-2.4 2.2)"><path d="M14 25h36a7 7 0 0 1 0 14H14a7 7 0 0 1 0-14z" fill="#c27b4b"/></g><path d="M14 25h36a7 7 0 0 1 0 14H14a7 7 0 0 1 0-14z" fill="none" stroke="#14382a" stroke-width="2.4" stroke-linecap="round" stroke-linejoin="round"/><path d="M7 32h5M52 32h5" fill="none" stroke="#14382a" stroke-width="3" stroke-linecap="round" stroke-linejoin="round"/><path d="M24 29l-2 6M33 29l-2 6M42 29l-2 6" fill="none" stroke="#14382a" stroke-width="2" stroke-linecap="round" stroke-linejoin="round" opacity="0.5"/></g></svg>