<svg xmlns="http://www.w3.org/2000/svg" viewBox="0 0 64 64" width="64" height="64" aria-hidden="true"><g><g transform="translate(-2.4 2.2)"><path d="M8 34h48v12H8z" fill="#e9bd4e"/><path d="M8 34 50 16l6 14z" fill="#f3d98c"/></g><path d="M8 34h48v12H8z" fill="none" stroke="#14382a" stroke-width="2.4" stroke-linecap="round" stroke-linejoin="round"/><path d="M8 34 50 16l6 14z" fill="none" stroke="#14382a" stroke-width="2.4" stroke-linecap="round" stroke-linejoin="round"/><path d="M17 40a2.6 2.6 0 1 0 5.2 0 2.6 2.6 0 1 0-5.2 0M31 41a2 2 0 1 0 4 0 2 2 0 1 0-4 0M44 39a2.2 2.2 0 1 0 4.4 0 2.2 2.2 0 1 0-4.4 0M38 27a2 2 0 1 0 4 0 2 2 0 1 0-4 0" fill="none" stroke="#14382a" stroke-width="2.2" stroke-linecap="round" stroke-linejoin="round"/></g></svg>