<svg xmlns="http://www.w3.org/2000/svg" viewBox="0 0 64 64" width="64" height="64" aria-hidden="true"><g><g transform="translate(-2.4 2.2)"><path d="M11 28h42l-3 21a4 4 0 0 1-4 4H18a4 4 0 0 1-4-4z" fill="#bfe0f2"/><path d="M6 28h52v-5a3 3 0 0 0-3-3H9a3 3 0 0 0-3 3z" fill="#a6d3ee"/></g><path d="M11 28h42l-3 21a4 4 0 0 1-4 4H18a4 4 0 0 1-4-4z" fill="none" stroke="#14382a" stroke-width="2.4" stroke-linecap="round" stroke-linejoin="round"/><path d="M6 28h52v-5a3 3 0 0 0-3-3H9a3 3 0 0 0-3 3z" fill="none" stroke="#14382a" stroke-width="2.4" stroke-linecap="round" stroke-linejoin="round"/><path d="M6 28H3M58 28h3" fill="none" stroke="#14382a" stroke-width="3" stroke-linecap="round" stroke-linejoin="round"/><path d="M32 28v25" fill="none" stroke="#14382a" stroke-width="2.2" stroke-linecap="round" stroke-linejoin="round" opacity="0.6"/><path d="M20 38h6M38 38h6" fill="none" stroke="#14382a" stroke-width="2" stroke-linecap="round" stroke-linejoin="round" opacity="0.5"/></g></svg>